<?xml version="1.0" standalone="no"?>
<!DOCTYPE svg PUBLIC "-//W3C//DTD SVG 20010904//EN"
 "http://www.w3.org/TR/2001/REC-SVG-20010904/DTD/svg10.dtd">
<svg version="1.0" xmlns="http://www.w3.org/2000/svg"
 width="1024.000000pt" height="1024.000000pt" viewBox="0 0 1024.000000 1024.000000"
 preserveAspectRatio="xMidYMid meet">
<metadata>
Created by potrace 1.14, written by Peter Selinger 2001-2017
</metadata>
<g transform="translate(0.000000,1024.000000) scale(0.100000,-0.100000)"
fill="#000000" stroke="none">
<path d="M0 5120 l0 -5120 5120 0 5120 0 0 5120 0 5120 -5120 0 -5120 0 0
-5120z m2171 3528 c43 -86 155 -261 227 -355 297 -388 598 -636 1053 -864 228
-114 466 -210 824 -332 575 -196 688 -254 792 -405 66 -96 75 -138 78 -353 4
-247 22 -309 111 -387 48 -43 119 -75 208 -94 50 -10 185 -6 256 9 l35 7 -35
8 c-86 18 -175 39 -177 42 -6 5 145 96 208 126 85 39 208 70 282 70 82 0 78 5
-93 104 -42 24 -93 44 -135 52 l-40 8 40 7 c93 18 213 7 300 -26 17 -7 17 -5
-5 19 -28 32 -306 257 -354 288 l-31 20 145 -6 c506 -22 878 -125 1099 -305
46 -38 141 -164 141 -188 0 -16 -53 -73 -67 -73 -4 0 -28 25 -53 55 -31 38
-50 53 -62 49 -9 -2 -20 1 -24 7 -5 8 -3 10 7 4 8 -5 11 -5 7 -1 -3 4 -8 6
-10 4 -2 -1 -16 5 -32 15 -59 39 -223 76 -336 77 l-46 0 56 -58 c30 -31 77
-95 104 -141 62 -106 111 -141 196 -141 31 0 79 7 106 15 62 19 74 19 74 0 0
-8 5 -15 10 -15 6 0 10 6 10 13 0 8 18 30 41 50 l41 37 47 -39 c131 -110 172
-179 179 -298 2 -46 1 -83 -4 -83 -5 0 -18 21 -29 46 -26 59 -68 101 -114 114
-20 5 -102 9 -181 9 -135 -1 -151 1 -235 29 -49 16 -117 37 -150 47 -70 20
-332 34 -322 18 5 -7 -26 -11 -91 -12 -121 -1 -222 -10 -222 -20 0 -5 -64 -12
-142 -16 -128 -7 -170 -10 -189 -14 -3 0 -3 -16 -1 -33 3 -18 1 -30 -3 -26 -4
4 -16 -2 -26 -13 -19 -22 -74 -29 -131 -16 -16 3 -28 1 -28 -4 0 -16 -117 -2
-227 27 -278 73 -423 233 -453 496 -31 269 -39 294 -119 352 -67 50 -141 81
-300 126 -75 22 -156 46 -181 55 -25 9 -85 25 -134 36 -201 45 -542 132 -639
164 -214 69 -394 159 -542 271 -81 60 -255 231 -307 300 -18 24 -37 44 -41 44
-4 0 4 -16 18 -35 l27 -34 -34 9 c-48 14 -58 13 -68 -12 -6 -16 -9 -18 -9 -6
-1 9 -4 18 -8 20 -13 5 -73 86 -73 97 0 5 -4 11 -9 13 -13 4 -103 187 -131
266 -12 34 -25 62 -28 62 -5 0 6 -143 15 -180 12 -50 -8 -11 -37 73 -16 47
-42 144 -56 214 -23 112 -27 153 -28 333 -1 182 8 340 20 340 2 0 18 -28 35
-62z m5482 -263 c66 -203 90 -360 89 -575 -1 -91 -5 -187 -10 -215 l-10 -50
-1 65 c-3 73 -24 189 -33 174 -3 -5 -11 -45 -18 -89 -25 -170 -57 -266 -143
-435 -52 -101 -67 -124 -75 -115 -3 3 -11 0 -18 -6 -9 -7 -17 -2 -30 20 -14
24 -21 28 -36 20 -12 -7 -17 -17 -13 -29 7 -21 -10 -36 -21 -19 -4 8 -3 9 4 5
15 -9 15 -1 1 26 -8 15 -8 19 1 13 7 -4 11 -1 9 6 -3 29 2 38 19 33 13 -5 14
-4 3 4 -11 8 -10 14 4 36 10 14 15 26 12 26 -3 0 -46 -39 -95 -87 -108 -108
-235 -204 -412 -312 -74 -46 -171 -107 -215 -137 l-81 -55 -129 25 c-72 14
-161 29 -200 33 l-70 9 90 89 c75 76 116 105 250 184 230 136 318 194 423 278
218 175 383 373 513 618 83 157 149 381 149 508 0 65 11 53 43 -48z m-2103
-767 c0 -9 12 -54 26 -99 38 -119 72 -153 200 -194 l99 -32 -60 -17 c-177 -50
-211 -86 -260 -279 l-22 -88 -7 48 c-11 80 -46 179 -78 217 -36 44 -100 77
-187 99 -35 9 -65 18 -67 20 -2 2 33 14 78 26 124 34 164 61 199 134 16 34 36
94 45 135 11 50 19 70 25 61 5 -8 9 -22 9 -31z m-3242 -496 c158 -108 334
-180 539 -221 113 -22 146 -26 418 -46 327 -24 657 -79 777 -128 30 -12 19
-14 -117 -13 -176 0 -334 -12 -314 -24 11 -7 10 -10 -4 -14 -9 -4 -25 -9 -34
-13 -24 -8 -23 -8 -58 -18 -16 -5 -34 -12 -40 -17 -5 -5 -23 -20 -40 -33 -26
-22 -28 -25 -10 -26 l20 0 -20 -9 c-11 -5 -32 -9 -47 -9 -30 -1 -31 -2 -22
-25 3 -9 10 -13 15 -10 13 8 10 -9 -6 -30 -13 -16 -24 -18 -117 -11 -297 19
-520 92 -763 249 -88 58 -254 213 -285 267 -57 98 -113 217 -135 285 -14 42
-25 77 -25 78 0 0 41 -38 90 -86 50 -47 130 -113 178 -146z m5475 -9 c-4 -55
-13 -102 -25 -124 -14 -28 -16 -42 -9 -62 8 -20 6 -28 -11 -44 -21 -18 -21
-18 -9 5 14 26 5 45 -9 22 -6 -8 -10 -10 -10 -4 0 5 5 15 12 22 7 7 8 12 3 12
-6 -1 -25 -21 -43 -45 -54 -75 -191 -168 -307 -212 -47 -17 -187 -43 -230 -42
-25 0 -12 9 70 50 248 124 355 195 428 283 47 56 95 130 123 189 10 20 19 37
21 37 2 0 0 -39 -4 -87z m-340 -8 c-3 -9 -8 -14 -10 -11 -3 3 -2 9 2 15 9 16
15 13 8 -4z m-3686 -421 c-3 -3 -12 -4 -19 -1 -8 3 -5 6 6 6 11 1 17 -2 13 -5z
m-1367 -273 c295 -176 632 -217 1085 -131 357 69 408 74 670 75 216 0 261 -3
330 -20 l80 -19 -80 -7 c-44 -4 -156 -12 -250 -18 -164 -11 -315 -35 -595 -96
-313 -68 -499 -86 -686 -66 -183 19 -360 77 -469 155 -16 11 -34 21 -38 21 -4
0 -12 7 -17 15 -5 8 -10 11 -10 5 1 -15 26 -46 32 -39 4 3 9 1 12 -5 4 -5 2
-12 -3 -15 -10 -6 -121 127 -156 186 l-19 33 24 -17 c14 -10 54 -35 90 -57z
m4441 -341 c27 -15 26 -66 -2 -80 -38 -21 -81 39 -51 73 18 20 26 21 53 7z
m-2111 -240 c11 -7 5 -10 -25 -10 -45 0 -192 -37 -275 -70 -64 -25 -333 -159
-394 -197 -48 -29 -37 -18 61 64 131 112 234 174 338 204 67 20 269 26 295 9z
m-2010 -34 c154 -37 328 -46 480 -25 41 6 91 12 111 14 20 1 41 5 45 7 23 13
65 17 88 8 17 -6 35 -6 52 0 16 7 23 7 19 0 -3 -6 -12 -10 -20 -10 -7 0 -16
-6 -18 -12 -4 -10 -8 -9 -16 2 -6 8 -11 11 -11 6 0 -5 -6 -3 -14 3 -9 7 -17 8
-20 2 -3 -5 0 -12 6 -15 7 -4 -2 -4 -19 -1 -20 3 -33 0 -33 -6 0 -6 17 -9 40
-8 21 2 42 1 44 -2 6 -6 -80 -37 -174 -63 -149 -41 -354 -40 -478 4 -31 11
-65 22 -76 25 -20 5 -81 60 -97 88 -9 16 -8 17 8 9 10 -6 47 -17 83 -26z m780
24 c-8 -5 -22 -9 -30 -9 -10 0 -8 3 5 9 27 12 43 12 25 0z m2257 -82 c-3 -8
-6 -5 -6 6 -1 11 2 17 5 13 3 -3 4 -12 1 -19z m-112 -88 c-3 -5 -16 -10 -28
-10 -18 0 -19 -2 -7 -10 13 -8 12 -10 -4 -10 -11 0 -16 -3 -13 -6 7 -7 -35
-44 -50 -44 -5 0 -18 -8 -29 -18 -10 -9 -31 -25 -46 -35 -50 -32 -157 -139
-202 -201 -39 -55 -80 -125 -123 -209 -8 -15 -19 -25 -24 -22 -8 6 -14 -16
-10 -38 1 -5 -3 -6 -9 -2 -9 6 -15 -22 -10 -55 1 -11 -1 -12 -9 -4 -15 14 57
236 106 324 53 96 177 215 283 270 68 36 160 77 178 80 2 0 0 -4 -3 -10z
m-595 -44 c0 -2 -42 -18 -92 -35 -106 -35 -240 -108 -304 -164 -51 -45 -57
-34 -14 28 52 76 131 131 220 153 62 16 190 28 190 18z m2043 -140 c49 -24 83
-76 111 -167 12 -40 29 -77 38 -83 22 -13 113 55 169 127 23 29 45 53 50 55 5
2 46 -15 91 -38 240 -122 467 -344 615 -602 89 -155 176 -433 172 -547 l-1
-26 -7 25 c-5 20 -14 26 -44 28 -20 2 -37 7 -37 13 0 5 -20 9 -45 9 l-45 0 -2
38 c-1 27 -3 22 -8 -23 l-7 -60 -1 55 c-2 40 -5 51 -12 40 -7 -12 -10 -8 -10
15 0 50 -11 75 -31 75 -15 0 -19 -7 -19 -33 0 -18 5 -38 12 -45 9 -9 9 -12 0
-12 -7 0 -12 -9 -12 -20 0 -11 -4 -20 -10 -20 -5 0 -11 -10 -11 -22 l-2 -23
-4 23 c-3 15 -12 22 -27 22 -12 0 -27 5 -34 12 -9 9 -12 9 -12 0 0 -7 -9 -12
-20 -12 -19 0 -21 5 -19 52 2 33 -2 53 -9 56 -7 2 -12 8 -12 13 0 6 5 7 10 4
6 -3 10 -2 10 3 0 5 -11 12 -25 14 -20 4 -25 1 -25 -16 0 -18 -2 -19 -11 -6
-9 12 -10 12 -5 -3 3 -10 6 -24 7 -30 0 -7 7 2 14 18 14 29 14 29 14 5 0 -14
-4 -34 -8 -45 -5 -11 -5 -31 -1 -45 13 -48 -7 -311 -30 -395 -29 -108 -83
-215 -150 -300 -65 -80 -105 -115 -195 -167 l-64 -36 34 52 c51 81 69 160 69
306 0 178 -37 305 -131 447 -41 63 -121 149 -129 140 -3 -3 1 -29 9 -59 22
-77 38 -228 31 -295 -8 -78 -43 -211 -66 -248 -10 -16 -18 -25 -18 -20 0 6 7
20 15 32 13 18 13 24 -1 53 -10 19 -21 29 -30 26 -8 -3 -19 1 -26 8 -11 11
-20 6 -51 -30 -88 -100 -230 -182 -362 -211 -202 -43 -374 24 -442 173 -28 63
-44 162 -23 149 10 -6 12 -4 7 9 -8 22 7 54 41 84 28 24 41 29 23 9 -6 -8 -7
-17 -3 -21 4 -4 1 -6 -7 -4 -21 5 -39 -60 -29 -106 14 -61 46 -124 81 -158 38
-36 107 -68 149 -68 25 0 29 3 22 18 -11 24 -17 108 -10 137 10 40 53 82 134
129 105 62 144 96 109 96 -8 0 -13 10 -13 23 1 15 -4 22 -16 21 -10 -1 -14 4
-11 12 3 8 0 14 -6 14 -6 0 -11 7 -11 15 0 18 -5 18 -30 5 -13 -7 -21 -7 -25
0 -3 5 -16 10 -28 10 -17 0 -19 -2 -7 -10 23 -15 7 -20 -31 -10 -31 9 -32 8
-15 -5 11 -8 33 -15 50 -15 36 0 32 -5 -12 -13 -21 -4 -31 -3 -27 3 4 7 -9 9
-37 5 -33 -3 -37 -3 -18 4 24 9 23 9 -10 11 l-35 1 40 16 c22 8 64 15 92 16
29 1 53 5 53 10 0 4 13 7 29 7 36 0 63 9 56 20 -3 4 -22 6 -43 3 -53 -7 -95
17 -128 73 -23 40 -26 53 -22 108 7 80 38 138 124 231 123 131 164 220 164
350 0 140 -72 314 -188 458 l-71 87 192 -2 c165 -3 197 -6 230 -22z m-673
-185 c12 -30 28 -98 38 -152 26 -156 1 -345 -69 -514 -12 -30 -26 -52 -31 -49
-7 5 -12 -10 -9 -30 2 -8 -39 -82 -66 -121 -13 -19 -14 -18 -8 10 5 25 4 27
-5 12 -7 -10 -9 -28 -6 -40 3 -12 1 -29 -5 -37 -8 -12 -9 -11 -5 6 5 15 -2 28
-25 48 -18 17 -28 33 -25 42 10 27 -13 53 -52 60 -20 4 -43 11 -50 17 -10 8
-16 7 -24 -4 -8 -11 -9 -10 -4 4 16 48 17 65 5 72 -8 5 -10 4 -5 -4 12 -18 -4
-53 -20 -47 -8 3 -12 2 -9 -3 3 -5 0 -13 -6 -16 -5 -4 -8 -14 -5 -22 3 -8 2
-12 -3 -9 -10 6 -61 -126 -85 -221 -23 -89 -39 -286 -33 -403 6 -120 -2 -111
-35 40 -15 69 -21 130 -21 225 0 149 16 238 69 390 20 55 37 111 38 125 2 14
4 31 4 39 2 10 5 11 16 2 11 -9 15 -8 20 4 3 9 2 14 -3 11 -10 -6 -20 33 -13
52 6 18 22 14 22 -5 0 -14 2 -15 9 -4 12 18 6 47 -8 43 -6 -1 -11 12 -11 30 0
30 1 31 15 12 14 -18 15 -17 4 8 -7 15 -17 26 -23 25 -6 -1 -12 8 -14 21 -2
12 -7 22 -11 22 -5 0 -12 15 -15 33 l-7 32 -13 -24 c-7 -13 -16 -19 -19 -14
-8 13 76 118 162 204 73 73 145 129 236 184 69 41 70 41 105 -54z m-498 -393
c-13 -13 -24 5 -16 27 7 16 8 16 17 0 6 -11 6 -20 -1 -27z m-3542 -202 c78
-36 150 -35 276 6 74 24 118 32 174 32 79 0 135 -18 109 -35 -10 -6 -11 -9 -1
-9 6 0 12 -8 12 -18 0 -10 3 -22 7 -26 17 -17 9 -48 -16 -58 l-26 -10 25 -11
c14 -5 28 -9 33 -9 4 1 7 -2 7 -8 0 -5 -8 -10 -17 -10 -15 0 -16 -2 -3 -10 11
-7 7 -10 -18 -10 -18 0 -50 -9 -71 -20 -116 -59 -233 -77 -317 -50 -79 26
-177 105 -231 185 -11 17 -30 57 -42 90 l-22 60 33 -32 c18 -17 58 -43 88 -57z
m2471 -85 c-6 -10 -7 -21 -3 -25 3 -4 -1 -4 -11 0 -13 4 -16 2 -12 -9 4 -8 -1
-17 -10 -21 -10 -4 -14 -2 -9 6 4 7 3 8 -4 4 -6 -4 -8 -14 -5 -22 3 -9 9 -12
12 -7 9 13 51 16 51 3 0 -6 -7 -10 -16 -8 -10 2 -19 -3 -22 -11 -3 -11 2 -12
23 -7 17 4 24 3 20 -4 -3 -5 -13 -10 -21 -10 -8 0 -14 -4 -14 -8 0 -5 -39 -21
-87 -35 -154 -46 -162 -47 -217 -35 l-51 12 50 8 c71 13 221 88 280 142 57 51
59 53 46 27z m-1249 -108 c140 -158 289 -246 452 -269 42 -6 58 -15 97 -54 26
-26 74 -63 106 -81 56 -31 62 -32 178 -33 66 -1 148 2 183 6 34 4 62 5 62 3 0
-10 -94 -54 -104 -48 -6 3 -8 3 -4 -2 8 -8 -76 -69 -112 -80 -11 -3 -20 -11
-20 -17 0 -6 -9 -8 -20 -5 -11 3 -18 2 -15 -3 2 -4 -12 -16 -33 -26 -20 -10
-50 -27 -65 -37 -15 -11 -35 -16 -43 -13 -8 3 -13 2 -10 -3 3 -4 -16 -18 -42
-30 -26 -12 -55 -27 -65 -32 -10 -5 -23 -7 -30 -3 -7 4 -9 3 -4 -1 9 -10 -126
-67 -240 -100 -214 -63 -521 -72 -695 -20 -27 8 -48 12 -48 10 0 -2 -15 2 -33
10 -26 11 -35 11 -50 1 -24 -18 -22 -46 3 -46 17 0 18 -2 8 -13 -7 -8 -22 -12
-33 -9 -18 5 -18 4 -5 -10 9 -8 26 -19 39 -23 12 -4 20 -9 17 -12 -9 -9 -180
72 -246 117 -124 84 -286 254 -354 373 -30 51 -29 53 24 35 25 -9 151 -12 435
-13 l400 0 104 -28 c57 -15 180 -53 273 -83 93 -31 171 -54 173 -52 2 2 -33
21 -77 43 -188 90 -307 268 -308 459 0 65 20 180 30 169 4 -4 37 -41 72 -80z
m4318 -193 c0 -16 -2 -30 -4 -30 -2 0 -6 14 -8 30 -3 17 -1 30 4 30 4 0 8 -13
8 -30z m-1150 -195 c0 -8 -4 -15 -10 -15 -5 0 -10 7 -10 15 0 8 5 15 10 15 6
0 10 -7 10 -15z m-205 -5 c4 -7 -3 -8 -20 -4 -25 6 -27 5 -20 -17 7 -21 6 -22
-9 -10 -12 10 -14 17 -5 27 14 16 45 18 54 4z m1782 -42 c-3 -8 -6 -5 -6 6 -1
11 2 17 5 13 3 -3 4 -12 1 -19z m-1902 -8 c-3 -5 -11 -10 -16 -10 -6 0 -7 5
-4 10 3 6 11 10 16 10 6 0 7 -4 4 -10z m355 -60 c-8 -5 -19 -10 -25 -10 -5 0
-3 5 5 10 8 5 20 10 25 10 6 0 3 -5 -5 -10z m-4607 -119 c75 -22 159 -61 197
-92 23 -19 23 -19 2 -9 -12 6 -26 8 -31 5 -5 -3 -21 0 -35 6 -20 9 -32 9 -53
0 -24 -10 -26 -10 -10 2 15 13 12 15 -33 20 -32 4 -63 1 -87 -8 l-38 -14 35
-1 c19 -1 27 -4 18 -7 -10 -2 -15 -10 -11 -19 3 -9 -2 -14 -13 -15 -11 -1 -1
-7 21 -14 22 -8 33 -14 25 -15 -8 0 8 -10 35 -22 97 -40 251 -117 301 -150 89
-58 145 -103 135 -106 -6 -2 -11 -8 -11 -14 0 -5 9 -6 21 -3 19 6 20 5 8 -8
-12 -13 -17 -12 -43 6 -26 19 -29 19 -23 3 4 -10 7 -22 7 -26 0 -15 42 -50 53
-43 6 3 7 1 3 -6 -8 -12 -10 -11 -121 75 -33 26 -94 63 -135 83 -70 33 -83 36
-185 39 -77 3 -122 0 -151 -10 -41 -15 -100 -6 -89 13 4 5 0 6 -8 3 -8 -3 -38
4 -68 15 -30 10 -79 25 -109 33 -69 16 -329 17 -384 0 -22 -6 -42 -9 -45 -7
-7 8 48 62 129 128 198 159 471 221 693 158z m36 -125 c-2 -2 -22 -6 -44 -9
-27 -4 -35 -3 -25 3 14 9 79 15 69 6z m2782 -123 c-12 -20 -14 -14 -5 12 4 9
9 14 11 11 3 -2 0 -13 -6 -23z m-14 -45 c-3 -8 -6 -5 -6 6 -1 11 2 17 5 13 3
-3 4 -12 1 -19z m-367 -182 c-48 -96 -111 -209 -140 -250 -61 -88 -186 -218
-250 -260 -25 -16 -61 -40 -80 -52 -19 -13 -72 -38 -118 -56 -57 -22 -78 -34
-66 -38 16 -6 16 -7 -1 -14 -16 -6 -17 -9 -5 -16 12 -8 9 -10 -10 -10 l-25 -1
25 -15 25 -15 -27 4 c-16 2 -28 1 -28 -4 0 -14 35 -16 62 -2 15 7 35 10 45 6
17 -7 -2 -13 -77 -26 -9 -2 -20 -6 -27 -10 -6 -4 -55 -12 -109 -17 -108 -12
-246 -2 -414 29 l-95 17 49 12 c77 20 227 95 328 163 92 63 345 304 502 479
37 41 65 67 62 58 -3 -12 -1 -15 10 -11 9 3 13 12 9 21 -4 12 -3 13 10 2 14
-12 19 -7 16 13 -1 5 2 6 7 3 5 -3 35 8 67 25 32 16 59 28 61 27 1 -2 -20 -30
-47 -63 -28 -33 -97 -125 -155 -205 -57 -80 -113 -155 -123 -167 -19 -23 -38
-32 -26 -13 3 6 4 10 1 10 -3 0 -12 -15 -20 -33 -8 -19 -43 -58 -79 -88 -37
-30 -62 -55 -57 -57 24 -9 184 59 251 105 95 66 228 215 376 421 54 76 153
202 157 202 2 0 -36 -78 -84 -174z m354 117 c-4 -21 -8 -53 -9 -71 -1 -18 -5
-35 -9 -39 -3 -3 -6 -15 -6 -25 0 -16 11 -23 32 -19 4 0 4 -7 1 -17 -6 -15 -5
-16 12 -2 18 15 18 14 1 -12 -17 -25 -36 -42 -21 -18 3 5 2 18 -4 27 -7 14 -9
10 -7 -17 1 -28 -17 -90 -27 -90 -1 0 1 55 4 122 5 109 21 198 35 198 3 0 2
-17 -2 -37z m-2903 -282 c56 -25 136 -50 204 -65 15 -3 13 -4 -7 -5 -15 0 -29
-5 -32 -10 -3 -4 7 -6 22 -4 19 3 23 2 13 -5 -26 -19 155 -92 289 -117 122
-23 316 -30 445 -16 102 11 331 45 383 56 41 10 23 -12 -30 -35 -191 -82 -356
-115 -583 -114 -147 0 -185 4 -282 26 -181 43 -304 101 -390 186 -40 40 -110
132 -100 132 2 0 33 -13 68 -29z m3001 -168 c-28 -56 -53 -113 -67 -158 -7
-22 -16 -49 -20 -59 -6 -14 -5 -17 4 -12 8 5 10 1 7 -16 -19 -91 -18 -98 9
-98 14 0 25 -5 25 -11 0 -5 -5 -7 -12 -3 -7 4 -8 3 -4 -5 11 -18 -79 -149
-195 -285 -8 -9 54 174 71 209 5 11 19 54 31 95 33 113 86 248 125 318 38 67
58 86 26 25z m395 -155 c-3 -7 -5 -2 -5 12 0 14 2 19 5 13 2 -7 2 -19 0 -25z
m-2460 -42 c2 -1 -34 -8 -80 -15 -217 -32 -287 -45 -287 -54 0 -5 10 -17 23
-28 12 -10 16 -18 9 -19 -7 0 -11 -11 -10 -28 1 -15 -2 -33 -6 -40 -4 -7 -2
-19 4 -27 7 -8 9 -15 4 -16 -5 -1 2 -5 16 -9 21 -7 18 -8 -20 -10 -25 -1 -36
-5 -25 -7 32 -9 -66 -30 -195 -43 -200 -20 -321 -41 -399 -69 -41 -16 -77 -33
-79 -39 -1 -5 12 -13 30 -17 43 -8 218 -64 240 -75 10 -5 24 -7 33 -4 8 3 15
2 15 -3 0 -27 239 -46 350 -28 l35 5 -30 -17 c-96 -53 -194 -72 -425 -83 -102
-4 -221 -15 -265 -25 -187 -39 -333 -108 -444 -210 -32 -30 -61 -55 -63 -55
-8 0 20 116 48 198 107 319 358 575 674 686 41 15 102 31 135 36 51 8 704 4
712 -4z m2094 -484 c-7 -14 -7 -19 3 -19 7 0 13 7 12 16 -1 12 10 17 41 19 36
3 47 -1 69 -25 51 -54 76 -92 68 -104 -4 -7 -3 -9 4 -5 6 3 13 2 17 -4 12 -19
30 -10 59 30 l30 40 12 -27 11 -28 8 30 c5 16 18 37 29 47 12 9 17 17 12 18
-17 0 -46 -33 -47 -54 0 -19 -1 -18 -10 4 -9 22 -6 28 22 53 31 25 40 27 122
27 l88 0 -28 -35 c-15 -19 -31 -35 -35 -35 -5 0 -8 -5 -8 -11 0 -18 -62 -89
-73 -82 -6 3 -7 2 -4 -4 4 -6 -9 -29 -29 -51 -30 -36 -33 -44 -23 -63 8 -17 8
-23 -1 -29 -14 -9 -5 -30 13 -30 8 0 8 3 -2 9 -7 5 -9 11 -3 14 5 4 21 -7 36
-24 23 -26 25 -33 14 -47 -11 -15 -11 -15 3 -5 13 11 19 9 35 -8 15 -17 16
-22 4 -29 -8 -5 -17 -7 -20 -5 -3 2 -6 -9 -6 -23 -1 -15 1 -21 3 -14 4 9 8 10
18 2 9 -8 15 -8 20 0 4 6 1 9 -6 8 -17 -4 -22 19 -5 25 9 4 30 -13 56 -44 l41
-49 -93 0 c-104 0 -106 1 -159 70 -64 85 -62 84 -91 52 -14 -15 -37 -44 -53
-64 -15 -21 -31 -36 -35 -33 -4 3 -11 -2 -14 -11 -5 -12 -23 -15 -101 -13 -80
1 -93 4 -84 15 6 8 19 14 29 14 13 0 17 6 13 18 -2 10 5 26 18 37 12 11 19 14
14 6 -5 -9 -4 -12 3 -7 6 4 9 13 6 20 -6 15 86 102 110 105 9 1 25 2 36 3 18
2 18 4 3 20 -17 20 -33 15 -33 -9 0 -9 -3 -13 -7 -10 -3 4 -13 1 -22 -6 -9 -6
-3 5 13 26 26 36 27 39 12 56 -9 10 -16 24 -14 32 2 7 -3 13 -10 14 -11 0
-111 108 -152 166 l-19 25 45 3 c42 2 44 0 35 -17z m1017 -72 c28 -12 52 -24
52 -27 0 -2 -12 -21 -27 -41 -15 -20 -28 -38 -28 -39 -1 -2 -19 6 -40 17 -44
22 -134 27 -153 8 -17 -17 -15 -46 6 -56 9 -5 53 -17 97 -27 121 -26 172 -88
146 -176 -24 -79 -99 -115 -219 -107 -70 5 -168 45 -178 73 -3 7 5 29 18 47
12 18 23 34 24 36 1 1 30 -11 65 -28 97 -45 198 -37 188 15 -4 20 -18 26 -145
64 -94 28 -129 64 -128 129 1 59 26 99 79 124 55 26 169 20 243 -12z m292 -67
l0 -93 110 0 110 0 0 96 0 95 48 -3 47 -3 0 -235 0 -235 -46 -3 c-55 -4 -59 3
-59 116 l0 72 -105 0 -105 0 0 -95 0 -95 -50 0 -50 0 0 238 0 237 50 0 50 0 0
-92z m723 60 c28 -65 167 -423 167 -431 0 -4 -25 -5 -55 -4 -52 4 -55 5 -65
38 l-12 35 -101 -3 -101 -3 -9 -32 c-9 -30 -12 -31 -68 -35 -55 -3 -58 -2 -53
17 4 11 44 114 90 230 55 139 89 212 101 216 10 4 34 8 54 8 32 1 38 -3 52
-36z m1087 -13 l0 -49 -117 -3 -118 -3 -3 -42 -3 -43 111 0 110 0 -2 -47 -3
-48 -107 -3 -108 -3 0 -44 0 -45 125 0 125 0 0 -45 0 -45 -144 0 c-79 0 -158
-3 -175 -6 l-31 -6 0 236 0 236 168 3 c92 1 168 4 170 5 1 1 2 -20 2 -48z
m-540 21 c63 -33 96 -128 69 -198 -12 -34 -58 -83 -76 -83 -22 0 -15 -18 32
-91 25 -38 45 -71 45 -72 0 -5 -109 1 -119 7 -5 4 -24 34 -42 66 -29 55 -35
60 -65 60 l-34 0 0 -63 c0 -35 -2 -66 -4 -68 -2 -2 -27 -2 -55 -1 l-51 4 0
229 0 229 133 0 c110 0 138 -3 167 -19z m-3618 -94 c-136 -125 -321 -238 -524
-320 -112 -46 -124 -62 -53 -70 22 -3 -43 -4 -145 -2 -205 2 -284 17 -410 77
l-65 31 90 12 c50 6 100 15 112 19 12 4 30 9 40 11 10 2 27 6 38 10 13 4 12 1
-5 -9 -23 -13 -23 -15 -7 -22 31 -12 176 4 282 30 232 58 470 150 630 244 69
41 72 39 17 -11z m-505 -393 c-3 -3 -12 -4 -19 -1 -8 3 -5 6 6 6 11 1 17 -2
13 -5z"/>
<path d="M2485 7520 c-4 -6 -11 -8 -16 -5 -5 3 -6 -1 -3 -10 4 -9 7 -15 8 -13
1 2 8 11 15 21 7 9 11 17 8 17 -3 0 -9 -5 -12 -10z"/>
<path d="M5001 5963 c-1 -12 4 -25 9 -28 6 -4 8 -16 5 -26 -7 -22 12 -52 26
-43 5 3 13 -6 19 -20 5 -14 12 -26 15 -26 4 0 3 5 -1 11 -4 8 1 9 17 4 13 -4
21 -4 17 0 -4 5 -3 14 3 21 6 7 8 18 4 24 -5 8 -11 5 -20 -6 -14 -20 -45 -12
-45 12 0 13 -3 14 -15 4 -17 -15 -19 -7 -5 21 7 11 7 19 1 19 -5 0 -14 12 -19
28 -9 24 -11 24 -11 5z"/>
<path d="M5031 5964 c0 -11 3 -14 6 -6 3 7 2 16 -1 19 -3 4 -6 -2 -5 -13z"/>
<path d="M4970 5953 c0 -5 7 -18 15 -29 13 -18 14 -18 8 4 -5 22 -23 41 -23
25z"/>
<path d="M5060 5910 c0 -5 5 -10 10 -10 6 0 10 5 10 10 0 6 -4 10 -10 10 -5 0
-10 -4 -10 -10z"/>
<path d="M5247 5858 c-28 -10 -28 -10 -8 -25 19 -13 23 -12 37 1 9 9 11 16 4
16 -6 0 -8 5 -5 10 3 6 5 10 3 9 -2 0 -16 -5 -31 -11z"/>
<path d="M5326 5835 c-7 -19 23 -35 66 -34 l33 1 -30 10 c-16 6 -36 17 -43 25
-17 16 -19 16 -26 -2z"/>
<path d="M5128 5833 c7 -3 16 -2 19 1 4 3 -2 6 -13 5 -11 0 -14 -3 -6 -6z"/>
<path d="M5155 5790 c3 -5 8 -10 11 -10 2 0 4 5 4 10 0 6 -5 10 -11 10 -5 0
-7 -4 -4 -10z"/>
<path d="M5183 5776 c2 -6 21 -14 43 -17 21 -3 32 -7 24 -9 -8 -1 5 -6 29 -11
23 -4 52 -11 62 -14 10 -4 19 -2 19 4 0 5 -19 14 -42 20 -37 9 -38 10 -8 7 19
-3 43 -7 53 -11 34 -14 16 10 -21 28 -42 20 -165 23 -159 3z"/>
<path d="M5443 5777 c3 -19 20 -27 57 -26 21 1 27 3 15 6 -11 3 -24 8 -30 13
-21 15 -45 19 -42 7z"/>
<path d="M5248 5723 c7 -3 16 -2 19 1 4 3 -2 6 -13 5 -11 0 -14 -3 -6 -6z"/>
<path d="M5288 5713 c7 -3 16 -2 19 1 4 3 -2 6 -13 5 -11 0 -14 -3 -6 -6z"/>
<path d="M5560 5705 c0 -8 9 -15 20 -15 11 0 20 7 20 15 0 8 -9 15 -20 15 -11
0 -20 -7 -20 -15z"/>
<path d="M5328 5703 c7 -3 16 -2 19 1 4 3 -2 6 -13 5 -11 0 -14 -3 -6 -6z"/>
<path d="M7451 7164 c0 -11 3 -14 6 -6 3 7 2 16 -1 19 -3 4 -6 -2 -5 -13z"/>
<path d="M3339 6573 c-1 -5 -1 -11 0 -15 0 -5 -14 -9 -31 -9 -32 -2 -32 -2 -5
-6 27 -4 57 10 57 28 0 11 -20 12 -21 2z"/>
<path d="M7980 4340 c0 -5 5 -10 10 -10 6 0 10 5 10 10 0 6 -4 10 -10 10 -5 0
-10 -4 -10 -10z"/>
<path d="M6890 4110 c0 -5 5 -10 11 -10 5 0 7 5 4 10 -3 6 -8 10 -11 10 -2 0
-4 -4 -4 -10z"/>
<path d="M6860 4059 c0 -5 5 -7 10 -4 6 3 10 8 10 11 0 2 -4 4 -10 4 -5 0 -10
-5 -10 -11z"/>
<path d="M6246 4463 c-6 -14 -5 -15 5 -6 7 7 10 15 7 18 -3 3 -9 -2 -12 -12z"/>
<path d="M6280 4465 c0 -8 2 -15 4 -15 2 0 6 7 10 15 3 8 1 15 -4 15 -6 0 -10
-7 -10 -15z"/>
<path d="M3122 3904 c2 -21 16 -38 58 -67 30 -21 54 -43 53 -47 -2 -5 5 -6 14
-3 9 4 14 2 10 -3 -3 -5 2 -10 11 -11 9 -1 37 -9 62 -19 62 -25 254 -25 365
-1 44 10 81 20 83 21 1 2 -14 7 -35 11 -21 3 -99 26 -173 50 -168 55 -283 83
-378 91 l-74 7 4 -29z"/>
<path d="M4170 3805 c-11 -13 -10 -14 4 -9 9 3 16 10 16 15 0 13 -6 11 -20 -6z"/>
<path d="M2008 3623 c7 -3 16 -2 19 1 4 3 -2 6 -13 5 -11 0 -14 -3 -6 -6z"/>
<path d="M2150 3610 c-9 -6 -10 -10 -3 -10 6 0 15 5 18 10 8 12 4 12 -15 0z"/>
<path d="M1995 3550 c3 -5 16 -10 28 -9 21 0 21 1 2 9 -28 12 -37 12 -30 0z"/>
<path d="M5116 2312 c-3 -5 1 -9 9 -9 8 0 12 4 9 9 -3 4 -7 8 -9 8 -2 0 -6 -4
-9 -8z"/>
<path d="M5140 2280 c-9 -6 -10 -10 -3 -10 6 0 15 5 18 10 8 12 4 12 -15 0z"/>
<path d="M5165 2270 c-10 -11 -14 -20 -9 -20 5 0 15 9 22 20 7 11 11 20 9 20
-2 0 -12 -9 -22 -20z"/>
<path d="M5426 2253 c-6 -14 -5 -15 5 -6 7 7 10 15 7 18 -3 3 -9 -2 -12 -12z"/>
<path d="M5469 2222 c-9 -10 -16 -26 -16 -35 0 -16 12 -14 12 1 1 4 6 17 13
30 15 27 12 28 -9 4z"/>
<path d="M5263 2185 c-3 -9 -3 -18 -1 -21 3 -3 8 4 11 16 6 23 -1 27 -10 5z"/>
<path d="M5226 2177 c3 -10 9 -15 12 -12 3 3 0 11 -7 18 -10 9 -11 8 -5 -6z"/>
<path d="M5260 2121 c0 -6 4 -13 10 -16 6 -3 7 1 4 9 -7 18 -14 21 -14 7z"/>
<path d="M5330 2060 c0 -5 5 -10 11 -10 5 0 7 5 4 10 -3 6 -8 10 -11 10 -2 0
-4 -4 -4 -10z"/>
<path d="M5440 2042 c6 -13 14 -21 18 -18 3 4 -2 14 -12 24 -18 16 -18 16 -6
-6z"/>
<path d="M5159 2034 c-12 -15 -3 -37 12 -29 5 4 13 14 18 24 12 21 -13 25 -30
5z m12 -17 c-10 -9 -11 -8 -5 6 3 10 9 15 12 12 3 -3 0 -11 -7 -18z"/>
<path d="M5376 2024 c-9 -24 -7 -36 6 -28 7 4 8 3 4 -5 -10 -15 13 -43 27 -34
6 4 8 0 4 -10 -3 -9 -2 -19 4 -22 5 -4 12 2 16 11 4 10 2 19 -5 22 -6 2 -8 10
-5 18 3 8 0 14 -7 14 -6 0 -9 -4 -5 -9 3 -5 1 -12 -4 -15 -11 -7 -9 13 2 32 5
7 2 18 -7 27 -18 19 -22 19 -30 -1z"/>
<path d="M5126 2003 c-11 -11 -7 -20 9 -20 8 0 15 4 15 8 0 11 -16 20 -24 12z"/>
<path d="M5083 1929 c-1 -12 5 -19 16 -19 22 0 23 27 1 33 -10 3 -16 -3 -17
-14z"/>
<path d="M5460 1925 c0 -8 -5 -15 -12 -15 -6 0 -3 -6 8 -14 10 -8 21 -12 24
-10 2 3 -2 9 -10 14 -10 7 -11 10 -2 10 6 0 12 7 12 15 0 8 -4 15 -10 15 -5 0
-10 -7 -10 -15z"/>
<path d="M5490 1900 c0 -5 5 -10 10 -10 6 0 10 5 10 10 0 6 -4 10 -10 10 -5 0
-10 -4 -10 -10z"/>
<path d="M5088 1893 c6 -2 18 -2 25 0 6 3 1 5 -13 5 -14 0 -19 -2 -12 -5z"/>
<path d="M5165 1890 c3 -5 13 -10 21 -10 8 0 12 5 9 10 -3 6 -13 10 -21 10 -8
0 -12 -4 -9 -10z"/>
<path d="M5038 1883 c6 -2 18 -2 25 0 6 3 1 5 -13 5 -14 0 -19 -2 -12 -5z"/>
<path d="M7042 2143 c-11 -32 -24 -70 -27 -85 l-7 -28 61 0 c34 0 61 2 61 4 0
11 -53 152 -60 159 -4 4 -16 -18 -28 -50z"/>
<path d="M7490 2165 l0 -75 54 0 c69 0 106 26 106 75 0 49 -37 75 -106 75
l-54 0 0 -75z"/>
<path d="M3090 1956 c0 -2 7 -7 16 -10 8 -3 12 -2 9 4 -6 10 -25 14 -25 6z"/>
</g>
</svg>
